<?xml version="1.0" standalone="no"?><!DOCTYPE svg PUBLIC "-//W3C//DTD SVG 1.1//EN" "http://www.w3.org/Graphics/SVG/1.1/DTD/svg11.dtd"><svg t="1527211706758" class="icon" style="" viewBox="0 0 1024 1024" version="1.1" xmlns="http://www.w3.org/2000/svg" p-id="3017" xmlns:xlink="http://www.w3.org/1999/xlink" width="16" height="16"><defs><style type="text/css"></style></defs><path d="M959 785.2c3 18-0.8 34.2-11.3 48.6C937.3 848.3 923 857 905 860l-108.1 17.2c-17.4 3-33.5-0.8-48.2-11.3-14.7-10.5-23.6-24.8-26.6-42.7l-91.9-581.8c-1.2-9-0.8-17.6 1.3-25.7 2.1-8.1 5.5-15.6 10.4-22.5 4.8-6.9 11-12.6 18.5-17.1 7.5-4.5 15.7-7.6 24.8-9.5l107.2-17.1c18-3 34.2 0.9 48.6 11.7 14.4 10.8 23.1 25.2 26.1 43.3L959 785.2zM506.1 145.9c18 0 33.3 6.3 45.9 18.9 12.6 12.6 18.9 27.9 18.9 45.9v601.5c0 18-6.3 33.3-18.9 45.9-12.6 12.6-27.9 18.9-45.9 18.9h-93.7c-18 0-33.3-6.3-45.9-18.9-12.6-12.6-18.9-27.9-18.9-45.9V210.7c0-18 4.8-33.3 14.4-45.9 9.6-12.6 23.7-18.9 42.3-18.9h101.8z m0 453.8c6 0 11.1-2.8 15.3-8.5 4.2-5.7 6.3-12.5 6.3-20.2 0-8.4-2.1-15.3-6.3-20.8-4.2-5.4-9.3-8.1-15.3-8.1h-93.7c-6 0-11.1 2.7-15.3 8.1-4.2 5.4-6.3 12.3-6.3 20.8 0 7.8 2.1 14.6 6.3 20.2 4.2 5.7 9.3 8.5 15.3 8.5h93.7z m0-114.4c6 0 11.1-2.8 15.3-8.5 4.2-5.7 6.3-12.7 6.3-21.2 0-8.4-2.1-15.3-6.3-20.8-4.2-5.5-9.3-8.1-15.3-8.1h-93.7c-6 0-11.1 2.7-15.3 8.1-4.2 5.4-6.3 12.3-6.3 20.8 0 8.4 2.1 15.5 6.3 21.2 4.2 5.7 9.3 8.5 15.3 8.5h93.7zM223.3 145.9c18 0 33.5 6.3 46.3 18.9 12.8 12.6 19.3 27.9 19.3 45.9v601.5c0 18-6.4 33.3-19.3 45.9-12.9 12.6-28.4 18.9-46.3 18.9h-93.7c-18 0-33.5-6.3-46.3-18.9C70.4 845.5 64 830.2 64 812.2V210.7c0-18 6.4-33.3 19.3-45.9s28.4-18.9 46.3-18.9h93.7z m-90 225.1c-6.6 0-12 2.7-16.2 8.1-4.2 5.4-6.3 12.3-6.3 20.8 0 7.8 2.1 14.6 6.3 20.2 4.2 5.6 9.6 8.5 16.2 8.5h86.4c6.6 0 11.9-2.8 15.7-8.5 3.9-5.7 5.9-12.5 5.9-20.2 0-8.4-1.9-15.3-5.9-20.8-3.9-5.4-9.1-8.1-15.7-8.1h-86.4z m90 282.7c6.6 0 11.9-2.7 15.7-8.1 3.9-5.4 5.9-12 5.9-19.8 0-8.4-1.9-15.1-5.9-20.2s-9.1-7.7-15.7-7.7h-90c-6.6 0-12 2.5-16.2 7.7-4.1 5.1-6.3 11.9-6.3 20.2 0 7.8 2.1 14.4 6.3 19.8 4.2 5.4 9.6 8.1 16.2 8.1h90z m0-110.7c6.6 0 11.9-2.7 15.7-8.1 3.9-5.4 5.9-12.3 5.9-20.7 0-8.4-1.9-15.3-5.9-20.8-3.9-5.4-9.1-8.1-15.7-8.1h-90c-6.6 0-12 2.7-16.2 8.1-4.2 5.4-6.3 12.3-6.3 20.8 0 8.4 2.1 15.3 6.3 20.7 4.2 5.4 9.6 8.1 16.2 8.1h90z" fill="#0A122D" p-id="3018"></path></svg>