<?xml version="1.0" standalone="no"?><!DOCTYPE svg PUBLIC "-//W3C//DTD SVG 1.1//EN" "http://www.w3.org/Graphics/SVG/1.1/DTD/svg11.dtd"><svg t="1527648109976" class="icon" style="" viewBox="0 0 1088 1024" version="1.1" xmlns="http://www.w3.org/2000/svg" p-id="2626" xmlns:xlink="http://www.w3.org/1999/xlink" width="17" height="16"><defs><style type="text/css"></style></defs><path d="M256 256q0-30.272-21.44-51.712t-51.712-21.44-51.712 21.44T109.696 256t21.44 51.712 51.712 21.44 51.712-21.44T256 256z m609.728 329.152q0 30.272-21.152 51.424l-280.576 281.152q-22.272 21.152-52 21.152-30.272 0-51.424-21.152L52 508.576q-21.728-21.152-36.864-57.728T0 384V146.272q0-29.728 21.728-51.424t51.424-21.728h237.728q30.272 0 66.848 15.136t58.272 36.864l408.576 408q21.152 22.272 21.152 52z m219.424 0q0 30.272-21.152 51.424l-280.576 281.152q-22.272 21.152-52 21.152-20.576 0-33.728-8t-30.272-25.728l268.576-268.576q21.152-21.152 21.152-51.424 0-29.728-21.152-52L527.424 125.152q-21.728-21.728-58.272-36.864t-66.848-15.136h128q30.272 0 66.848 15.136t58.272 36.864l408.576 408q21.152 22.272 21.152 52z" fill="" p-id="2627"></path></svg>